<svg data-name="Rapha Logo" xmlns="http://www.w3.org/2000/svg" viewBox="0 0 120 54.94"><defs><style>.rapha-logo-path{fill:#fff;}</style></defs><title>Rapha</title><path class="rapha-logo-path" d="M117.35,30.73A2.65,2.65,0,1,0,120,33.39,2.66,2.66,0,0,0,117.35,30.73Zm0,4.68a2,2,0,1,1,2-2A2,2,0,0,1,117.35,35.41ZM117.46,32h-0.74a0.32,0.32,0,0,0-.33.32v2.17a0.32,0.32,0,0,0,.33.32,0.32,0.32,0,0,0,.32-0.32V33.74h0.26l0.4,0.85a0.31,0.31,0,0,0,.3.21,0.33,0.33,0,0,0,.32-0.32,0.31,0.31,0,0,0,0-.14l-0.36-.71a0.66,0.66,0,0,0,.43-0.66V32.75A0.75,0.75,0,0,0,117.46,32Zm0.26,0.94a0.27,0.27,0,0,1-.33.26H117V32.55h0.39a0.24,0.24,0,0,1,.29.25v0.12Zm-9.6-1c-0.64.46-1.72,0.5-1.11-2a44.89,44.89,0,0,1,2.92-7c0.41-1-.12-2.19-1.88-2.33a2.91,2.91,0,0,0-2.23.72,5.18,5.18,0,0,0-4.07-1.77C98.51,19.51,94,22,91.41,26a22.1,22.1,0,0,1-5.65,6,2.55,2.55,0,0,1-2,.52c-1-.37-0.73-1.85,1.45-4.32,3.49-4,4.49-7,2.46-8.75-1.38-1.21-3.66-1.33-6-.25a16.42,16.42,0,0,0-5.11,3.7c3.21-6.63,7.2-14.37,9.86-18.73,1.24-2,1.24-3.76-.5-4.07-1.53-.27-3.08.47-4.32,3.07-2.85,6-5.2,11.28-8,17.24h0C71.86,24,68.53,29.06,64.16,32a2.54,2.54,0,0,1-2,.52c-1-.37-0.73-1.85,1.44-4.32,3.49-4,4.49-7,2.46-8.75-1.38-1.21-3.66-1.33-6-.25a18.29,18.29,0,0,0-6,4.64c1.33-2,1.18-3.9-.09-4.3-1.67-.53-2.55.12-4.14,4.63-0.81,2.2-3,6.39-6.14,7.79-0.71.33-2,.5-1.43-2a44.77,44.77,0,0,1,2.92-7c0.4-1-.13-2.19-1.88-2.33a2.92,2.92,0,0,0-2.24.72,5.19,5.19,0,0,0-4.07-1.77c-4.23,0-10.57,4.23-12.13,10.52a5.17,5.17,0,0,1-4,2.26c-3.23.1-5-2.77-5.76-6.09,7.27-1.43,14.11-5.48,15.44-11.86,1.27-6-2.89-11.26-10.33-11.11C10.06,3.44,3.15,10.82,1.49,14c-1.16,2.19-.1,3.95,1.38,3.88A4.06,4.06,0,0,0,6.51,15c1-3.42,4.88-7.34,11.48-7.9,5-.42,7.82,2.75,7.37,6.85-0.57,5-5.48,7.86-10.55,9.15V22.74c0-1.55-.14-2.59-1.19-2.92a1.22,1.22,0,0,0-.77-1.22c-0.86-.39-2-0.34-3,1.13-3.53,5.43-5.25,8-8.67,12.44-1.58,2.06-1.62,4.21-.05,4.66s3.14-.2,4.44-2.28c1.73-2.77,3.18-5.46,4.44-7.78l1.05,0c0.22,4.54,2.51,10.78,8.75,9.77a9.64,9.64,0,0,0,5.09-2.72c0.89,2.53,3.91,3.13,6.92,1.71a18.37,18.37,0,0,0,6-4.63C36,35.5,39.54,38.93,45,34.49l0.68-.56C43,39.68,39.63,46.07,37.57,50.45c-1.41,3-.76,4.34,1,4.47s2.77-.77,3.82-3.29c1.44-3.39,4.19-10.77,8.55-19.24,4.16-8.09,9.5-10.08,10.55-9.39S61,25.52,58.67,28.53c-2.59,3.29-2.47,6-1.22,7.14,1.58,1.42,4.42,1.68,7.95-1.17a26.24,26.24,0,0,0,2.49-2.27c-1.11,2.2-1.54,3.83,0,4.43a2.31,2.31,0,0,0,3-1.38,35.83,35.83,0,0,1,5.67-8.68c3.12-3.39,5.94-4,6.58-3.59,1.12,0.73-.46,2.52-2.84,5.53-2.59,3.29-2.46,6-1.22,7.14,1.59,1.42,4.42,1.68,7.95-1.17a26.1,26.1,0,0,0,2.36-2.14c0.19,3.7,3.67,4.76,7.18,3.12a18.65,18.65,0,0,0,6-4.63c-1.62,4.89,2.88,7.8,7.34,3.76,1.13-1,1.29-2.29.78-2.82C109.95,31,109,31.27,108.12,31.9Zm-75.25-.66c-1.81,1.13-4.17.69-3.09-2.59,1-3.07,3.69-4.83,5.33-4.83a3.34,3.34,0,0,1,3.07,2A16.54,16.54,0,0,1,32.87,31.24Zm64.68,0c-1.81,1.13-4.17.69-3.09-2.59,1-3.07,3.57-4.83,5.21-4.83a3.57,3.57,0,0,1,3.2,2A16.75,16.75,0,0,1,97.55,31.24Z"/></svg>
