<?xml version="1.0" encoding="UTF-8" standalone="no"?>
<svg width="43px" height="31px" viewBox="0 0 43 31" version="1.1" xmlns="http://www.w3.org/2000/svg" xmlns:xlink="http://www.w3.org/1999/xlink">
    <title>GOV.UK Logo</title>
    <defs></defs>
    <g id="Page-1" stroke="none" stroke-width="1" fill="none" fill-rule="evenodd">
        <g id="gov-uk-crown" transform="translate(1.000000, 0.000000)" fill-rule="nonzero" fill="#FFFFFF">
            <path d="M18.6660085,0 L19.7870085,3.5254 L19.7790085,3.5351 C19.6780085,3.6139 19.5870085,3.7038 19.5100085,3.8066 L19.5000085,3.8144 L16.7170085,2.9336 L16.7170085,7.041 L19.5060085,5.5781 L19.5120085,5.584 C19.5940085,5.6923 19.6900085,5.7876 19.7990085,5.8691 L18.1990085,10.6993 C18.1980085,10.7053 18.1950085,10.7113 18.1930085,10.7163 L18.1910085,10.7223 C18.1170085,10.9643 18.0760085,11.2193 18.0760085,11.4843 C18.0760085,12.7913 19.0400085,13.8693 20.2950085,14.0543 C20.3140085,14.0573 20.3320085,14.0623 20.3510085,14.0643 C20.4580085,14.0783 20.5660085,14.0883 20.6780085,14.0883 C20.7880085,14.0883 20.8990085,14.0793 21.0060085,14.0643 C21.0240085,14.0623 21.0420085,14.0583 21.0600085,14.0543 C22.3150085,13.8693 23.2810085,12.7913 23.2810085,11.4843 C23.2810085,11.2193 23.2390085,10.9643 23.1660085,10.7223 L23.1640085,10.7163 C23.1630085,10.7103 23.1610085,10.7043 23.1580085,10.6993 L21.5580085,5.8691 C21.6670085,5.7876 21.7630085,5.6924 21.8460085,5.584 L21.8530085,5.5781 L24.6410085,7.041 L24.6410085,2.9336 L21.8550085,3.8144 L21.8480085,3.8066 C21.7700085,3.7038 21.6810085,3.6139 21.5780085,3.5351 L21.5700085,3.5254 L22.6910085,0 L20.6800085,0 L18.6660085,0 L18.6660085,0 Z M8.63700847,5.2832 C7.78270847,5.2964 6.96830847,5.8143 6.62140847,6.6562 C6.15860847,7.7734 6.69410847,9.0613 7.80690847,9.5173 C8.94100847,9.9853 10.2283085,9.4493 10.6893085,8.3281 C11.1543085,7.2094 10.6233085,5.91 9.48830847,5.4453 C9.21070847,5.331 8.92180847,5.2788 8.63700847,5.2832 L8.63700847,5.2832 Z M32.7380085,5.2832 C32.4530085,5.2788 32.1630085,5.331 31.8850085,5.4453 C30.7510085,5.91 30.2200085,7.2094 30.6840085,8.3281 C31.1460085,9.4493 32.4330085,9.9853 33.5680085,9.5173 C34.6810085,9.0613 35.2160085,7.7734 34.7540085,6.6562 C34.4070085,5.8143 33.5930085,5.2964 32.7380085,5.2832 Z M14.2090085,7.043 C13.3550085,7.0562 12.5400085,7.5737 12.1930085,8.416 C11.7310085,9.5333 12.2660085,10.8193 13.3790085,11.2753 C14.5130085,11.7433 15.8000085,11.2093 16.2620085,10.0883 C16.7260085,8.9703 16.1950085,7.6687 15.0610085,7.2031 C14.7820085,7.0889 14.4940085,7.0385 14.2090085,7.043 Z M27.1660085,7.043 C26.8810085,7.0385 26.5920085,7.0889 26.3140085,7.2031 C25.1810085,7.6687 24.6470085,8.9703 25.1110085,10.0883 C25.5740085,11.2093 26.8610085,11.7433 27.9960085,11.2753 C29.1080085,10.8193 29.6440085,9.5333 29.1820085,8.416 C28.8350085,7.5737 28.0210085,7.0562 27.1660085,7.043 L27.1660085,7.043 Z M3.64300847,8.209 C2.78880847,8.2225 1.97470847,8.74 1.62730847,9.5823 C1.16520847,10.6983 1.70000847,11.9873 2.81290847,12.4433 C3.94760847,12.9113 5.23580847,12.3753 5.69760847,11.2543 C6.16240847,10.1353 5.62920847,8.8367 4.49450847,8.3711 C4.21660847,8.257 3.92770847,8.2045 3.64300847,8.209 L3.64300847,8.209 Z M37.7300085,8.209 C37.4460085,8.2045 37.1570085,8.257 36.8790085,8.3711 C35.7460085,8.8367 35.2130085,10.1353 35.6780085,11.2543 C36.1400085,12.3753 37.4260085,12.9113 38.5610085,12.4433 C39.6730085,11.9873 40.2100085,10.6983 39.7480085,9.5823 C39.4010085,8.74 38.5850085,8.2225 37.7300085,8.209 Z M2.18200847,13.7593 C1.32750847,13.7733 0.513708472,14.2903 0.166408472,15.1333 C-0.296091528,16.2503 0.239458472,17.5383 1.35190847,17.9943 C2.48690847,18.4623 3.77420847,17.9283 4.23670847,16.8063 C4.70110847,15.6883 4.16990847,14.3873 3.03550847,13.9223 C2.75750847,13.8073 2.46690847,13.7553 2.18200847,13.7593 L2.18200847,13.7593 Z M39.1930085,13.7593 C38.9090085,13.7553 38.6200085,13.8073 38.3420085,13.9223 C37.2070085,14.3873 36.6740085,15.6883 37.1390085,16.8063 C37.6000085,17.9283 38.8890085,18.4623 40.0230085,17.9943 C41.1360085,17.5383 41.6700085,16.2503 41.2070085,15.1333 C40.8610085,14.2903 40.0480085,13.7733 39.1930085,13.7593 L39.1930085,13.7593 Z M10.1480085,14.3453 C8.33090847,16.7613 8.58890847,18.7563 10.8400085,21.0023 C9.37400847,20.1913 7.09660847,21.0443 8.43940847,23.7833 C9.14130847,22.0793 10.6450085,22.4633 10.9590085,23.9273 C11.1710085,24.9613 10.5420085,26.1793 9.17580847,26.4293 C8.05700847,26.6363 6.33040847,25.8693 4.94720847,22.8903 C5.72690847,22.9093 6.40660847,23.3033 7.29100847,23.9123 L5.83790847,19.0743 C5.47160847,20.4333 5.00480847,21.3213 4.50980847,21.8043 C4.17600847,20.8253 4.22430847,20.1183 4.52150847,18.5953 L1.52340847,19.6623 C3.11530847,21.8353 4.65720847,24.8873 5.92380847,30.2133 C10.3860085,29.5753 15.3930085,29.2163 20.6838085,29.2163 C25.9748085,29.2163 30.9838085,29.5753 35.4468085,30.2153 C36.7138085,24.8873 38.2568085,21.8353 39.8498085,19.6623 L36.8518085,18.5953 C37.1498085,20.1183 37.1968085,20.8253 36.8628085,21.8043 C36.3688085,21.3213 35.8988085,20.4333 35.5328085,19.0743 L34.0818085,23.9123 C34.9648085,23.3033 35.6478085,22.9093 36.4278085,22.8903 C35.0448085,25.8693 33.3168085,26.6363 32.1968085,26.4293 C30.8308085,26.1793 30.2018085,24.9613 30.4138085,23.9273 C30.7288085,22.4633 32.2318085,22.0793 32.9338085,23.7833 C34.2758085,21.0443 31.9988085,20.1913 30.5328085,21.0023 C32.7848085,18.7563 33.0418085,16.7613 31.2248085,14.3453 C28.6918085,16.2813 28.6628085,18.1973 29.8028085,20.8943 C28.3238085,19.2023 26.0218085,20.1093 26.8528085,22.8433 C27.9188085,21.1933 29.3328085,22.2323 29.1108085,23.8003 C28.9238085,25.1673 27.1198085,26.2693 24.8728085,26.0743 C21.6538085,25.7823 21.4608085,23.5623 21.3808085,21.7223 C22.1718085,21.5763 23.5968085,22.3093 24.8118085,24.0153 L25.2598085,18.8843 C23.9378085,20.2633 22.7368085,20.5243 21.4018085,20.5663 C21.8458085,19.1803 23.8888085,16.9103 23.8888085,16.9103 L20.9218085,16.9103 L20.9198085,16.9103 L17.4838085,16.9103 C17.4838085,16.9103 19.5258085,19.1803 19.9708085,20.5663 C18.6358085,20.5243 17.4348085,20.2633 16.1128085,18.8843 L16.5608085,24.0153 C17.7768085,22.3093 19.2008085,21.5763 19.9918085,21.7223 C19.9128085,23.5623 19.7198085,25.7823 16.4998085,26.0743 C14.2528085,26.2693 12.4508085,25.1673 12.2638085,23.8003 C12.0418085,22.2323 13.4528085,21.1933 14.5198085,22.8433 C15.3508085,20.1093 13.0478085,19.2023 11.5698085,20.8943 C12.7098085,18.1973 12.6808085,16.2813 10.1478085,14.3453 L10.1480085,14.3453 Z" id="Shape" transform="translate(20.686963, 15.107650) scale(-1, 1) translate(-20.686963, -15.107650) "></path>
        </g>
    </g>
</svg>
