<svg id="Layer_1" data-name="Layer 1" xmlns="http://www.w3.org/2000/svg" viewBox="0 0 800 800"><defs><style>.cls-1{fill-rule:evenodd;}</style></defs><title>Do Book Co.</title><path class="cls-1" d="M658.21,230.41c16.85.12,32.26-4.48,47.76-7.06,2.58-9.71-.4-18.2-.83-27-.21-4.18.41-8.82.41-13.29s-.8-9.2-.41-13.29A31.51,31.51,0,0,1,711.37,154c4.95-5.92,16.21-12.06,25.34-13.71A48.89,48.89,0,0,1,764.12,144c7.82,3.73,16.4,14.08,17.86,26.58,1.11,9.5,0,24.14-1.25,34.47-.38,3.21-.18,8-1.25,10.38-1.51,3.35-7.56,4-9.55,7.48-5.24,9.21-.32,19.86,5.4,25.33,2.58,2.47,6.38,2,8.3,4.15,2.16,2.39,3.76,10,4.15,14.54.83,9.46-.86,19.07-2.49,28.66-1.6,9.42-3.44,19.48-7.06,23.68-8,9.25-42.26,17.18-55.24,5-12.36-11.62-9.57-36.63-14.12-56.49-15,1.31-33.1-.43-46.1,2.91,3.59,35.12,1.73,73.33,2.49,109.65.65,31.22-13,67.22-31.15,81.41-8.89,7-21.42,12.15-34.06,15.78-26.74,7.69-60,5.73-88.47-.42-15.14-3.27-30.3-7.09-40.7-14.95-17.17-13-26.13-38.74-29.49-64.79-3.71-28.73-7.36-56-9.14-85.14a415.8,415.8,0,0,1,4.15-88.47c2-13.36,4.88-25.81,10-37,4.83-10.6,10.88-21.27,19.1-27.83,7.65-6.09,17.5-10,27.41-13.29,24.26-7.94,58.25-6.24,89.3-4.15,17.47,1.17,33.07,3.64,43.61,11.21C647.36,168.23,652.39,197.87,658.21,230.41Zm80.57-26.58a14.39,14.39,0,0,0,13.29-1.25c6.83-4.83,9.27-26.92,1.25-33.64-2.21-1.85-6.46-2.92-11.22-2.08C728.32,169.31,727,198.79,738.78,203.83Zm-244.22,64c-3.71,10.39-3.68,30.82-2.49,45.69,1.2,15.09,2.11,31.81,7.06,43.2,6,13.88,22,24.25,38.21,27.41,23.45,4.58,50.47-1.07,61.47-19.11,7.48-12.27,8.62-32.65,9.55-52.75s-2-41.43-8.72-53.16c-9.67-17-34-26.16-61.05-23.67C517.12,237.37,500.71,250.6,494.56,267.79Zm262.08,34.06c11.8-8.8,3.34-36.23-8.31-36.13C722.64,265.91,735.46,317.64,756.64,301.85Z"/><path class="cls-1" d="M144.44,392.81c-14-3.13-33.17-1.9-47.76-.42-5.9,16.47-1,37.16-3.32,54.82-.32,2.37-3.94,7.85-5.4,9.55A38,38,0,0,1,70.09,468c-17.17,4.84-36.12,0-44.86-12.87-4.73-7-10-19-11.22-29.49-1.2-10,.18-27.38,5.4-34.47,2.12-2.87,6.56-3.29,9.14-7.06,2-2.86,4.74-8.69,4.15-12.88-.91-6.51-10.26-6.67-14.12-11.21-4-13.11-5.89-22.92-3.74-37.38,1.65-11.09,3.46-22.37,8.3-30.32,9-14.72,38.4-26.22,56.9-14.12,2.8,1.83,5,4.79,7.48,7.89s6,5.19,7.06,9.55c4.27,17.16-2.49,39.55-1.25,57.73,16.08,3.06,37.29.44,52.33-1.25,7.54-33.77-3-66.69-1.66-101.76,1-25.71.26-53.17-3.32-77.25-1.08-7.24-5.13-17.52-2.07-22.43,2.46-4,13.17-4.6,19.94-5.4,23-2.74,48.27-1.66,71.44-3.74,15.4-1.38,33,.83,47.76,3.32,14.5,2.45,29.19,4.41,41.95,7.89,25.77,7,46.59,21.64,61.88,38.21,15.77,17.09,26.54,39.91,33.23,66.87,6.42,25.85,11.37,60.47,7.48,90.54a191.55,191.55,0,0,1-26.17,73.93c-12.53,20.33-30.4,39-52.33,47.76-24.78,9.87-57.6,8.49-91,8.3-22.93-.12-46.76-2.42-69.77-5-7.22-.8-16-1-21.6-3.32-11.36-4.7-15.78-23.41-16.61-39-.33-6.14,1.39-11.16,1.66-17.44C146.83,406.09,144.92,400.32,144.44,392.81Zm76.84-153.26c-5.23,5.69-5.4,25-5.4,34.06,0,27.69.79,50.38,4.15,74.76,1.57,11.39,3.22,24.81,10,29.91,4.14,3.13,12.4,4,19.94,5,20.92,2.66,53.17,3.88,68.11-4.15,12.94-6.95,19.94-29.15,22.84-45.69,3.38-19.17,3.59-44.8-3.32-59.81-14.22-30.84-48.64-43.31-95.12-39.87C235.3,234.26,225.55,234.89,221.27,239.55ZM42.68,328.43c1.24,11.07,14.71,19.65,22.84,9.14,5-6.41,6.51-23.49,0-30.32-2.12-2.23-6.14-3.47-10-3.32C45.25,304.32,41.35,316.51,42.68,328.43ZM53.06,438.91c6.09,2.37,13.39-.9,16.61-6.23,4.74-7.82,3.83-28.09-4.57-31.15-2.33-.85-4.69-.5-7.48,0C43.66,404,39.21,433.51,53.06,438.91Z"/><path class="cls-1" d="M143.64,561.9c.78-4,.83-8.48,2.65-12,1.92-3.72,10.38-10.49,43.07-6.16,9.19.81,10.71,3.19,15.69,6.51,6,4,11.6,7.85,14.65,15.09,3.66,8.7,3.06,19.86-3.34,27-2.42,2.7-5.38,4.92-8,7.47a3.54,3.54,0,0,0-1.15,2.62c.14.73,1.25,1.46,2.09,1.83,5,2.18,9.25,4.95,12.24,9.84,4.14,6.78,1.77,13.24-.29,19.65-1.1,3.41-3.34,6.46-5.16,9.63-5.77,9.35-18.09,11.11-30.75,11.11-10.46-.18-20.92-.05-31.39-.06-6.56,0-10.48-3.89-10.47-10.33q0-19.06,0-38.12C144,606,143.58,562.22,143.64,561.9Zm19.9,26.29c-.28,4.54,1.94,5.46,5.9,5.58,6.38.19,17.92-1.58,20.34-1.79,10-6.22,9.32-14.59,5-23.25-3.55-7-15.92-12.32-23.74-10.56-2.16.49-5.28,2.77-5.55,4.59C164.33,570.25,163.88,582.8,163.54,588.2Zm5.3,32.94H169c0,3.71.28,7.44-.08,11.12-.38,3.89,1.52,5.49,4.86,6.3,8.32,2,16.29.5,23.68-3.25,2.41-1.22,5.12-4.25,5.45-6.75,1-7.29-1.71-13.71-7.42-18.6-5.33-3-8.39-2.47-15.75-3.33-3.52-.41-10.83-1-10.86,2.59C168.83,613.2,168.84,617.17,168.84,621.14Z"/><path class="cls-1" d="M230.18,623.79c.17-14.7,6.57-26,19.63-32.59,6.37-3.21,13.49-5.55,21.19-2.91,6.34,2.17,10.08,7.14,13.9,11.86,5.17,6.4,6.78,14.14,7.57,22.34a40.24,40.24,0,0,1-3.91,21.33c-1.82,3.9-5.05,7.38-8.29,10.34-8.34,7.63-25,6.35-34.58.32-5.17-3.26-4.47-4.22-8.5-8.64C231.73,639.88,230,632,230.18,623.79Zm15.52-2.65c.58,3.48.67,7.14,1.85,10.4,1.74,4.81,3,10.75,9.28,11.61,6.6.91,13.38.82,17.78-5.68,5.41-8,5.32-21.25-.88-28.43-2.1-2.44-3.49-6-7.75-6.1C255.52,602.58,245.19,609.39,245.7,621.14Z"/><path class="cls-1" d="M519.59,651.81c-9.85-4.89-19-12-19.41-25.21-.22-6.83-1.5-13.62-1.93-20.45-.16-2.41.76-4.89,1.2-7.34a41.84,41.84,0,0,1,19.71-29.24,46.18,46.18,0,0,1,16.75-5.8,56,56,0,0,1,18.72,0c9,1.66,17.65,4.79,23.35,12.93,2.26,3.23,5.1,6,7.39,9.24,3.47,4.85,2.08,8.56-3.58,9.54a71.24,71.24,0,0,1-9.83.71,3.12,3.12,0,0,1-2.33-.95,76.31,76.31,0,0,1-5.65-8.49c-5.29-9.76-19.35-13.28-27.5-5.94a7.45,7.45,0,0,1-2,1.31C523.14,587,520.67,597.25,518.42,608c-1.91,9,.56,16.19,7.39,21.91,2.56,2.14,5.58,4.26,8.73,5a86.21,86.21,0,0,0,16.4,2.15c5.82.29,10.75-2.39,14.67-6.56a7.11,7.11,0,0,1,6.14-2.65c3.29.21,6.62.05,9.93.06,2.5,0,3.49,1,2.28,3.45-4,8.13-9.1,15.59-17.1,19.86C559.19,657.28,535.11,659.51,519.59,651.81Z"/><path class="cls-1" d="M300.57,627.35c-2.84-4.64-1.79-12.24-.43-19.53.79-4.22,3.16-8.36,5.61-12,6.23-9.32,16.36-12.65,26.89-9,5.79,2,12,3.56,16.93,7,8.14,5.72,11.72,14.76,12.88,24.46,1.5,12.6-2.53,23.6-12.29,31.64-5.53,4.56-11.85,8.48-19.92,7.81-6.55-.55-11.22-4.47-16-8C307.55,644.79,303.87,637.66,300.57,627.35Zm27.14-25.76c-5,1.24-9.06,2.54-11.31,6.9-4,7.83-2.86,15.33.7,23,2.34,5,6.61,7.81,11,10.36,3.77,2.2,14.31-3.08,16.67-7.83,4.31-8.67,2.32-19.51-4.48-27.66C336.59,601.94,332.74,599.47,327.71,601.59Z"/><path class="cls-1" d="M392.88,607.72c4.39-3.81,8.18-7.24,12.11-10.5,4.55-3.78,9.23-7.39,13.82-11.12,4.19-3.42,11.3-.76,9.57,2-2.82,6.95-5.37,8.33-8.74,13.22A81.28,81.28,0,0,0,412.78,614c-1.07,2.39-1.15,5,1.21,7.25,6.56,6.19,11.1,13.91,15.86,21.45,2.78,4.42,5.52,8.85,8.31,13.32-7.14,1.15-13.66,2.12-20.15,3.29-2.9.52-4-.37-5-3.25-2.68-7.52-5.86-14.87-9.06-22.19A12.89,12.89,0,0,0,388.69,627a4.73,4.73,0,0,0-2.54,3.57c0,5,.29,10.09.69,15.12.36,4.62.95,11.18-3.58,11.82-1.43.2-4.22-.24-5.64,0s-4.09-.13-6.07.19c-.5-5.57-1-13.93-1.13-19.48-.26-13.23-.27-26.47-.21-39.71,0-6.32.58-12.64.65-19,0-3.14-.63-6.28-.72-9.43-.2-6.69,1.47-8.83,8.34-8.87,10.8-.06,8.76-2.56,10.7,9,1.5,8.92,2.32,18,3.29,27,.2,1.88-.48,3.83-.41,5.74A31.16,31.16,0,0,0,392.88,607.72Z"/><path class="cls-1" d="M592,621.32c.21-14.71,6.7-26,19.75-32.52,6.37-3.2,13.53-5.5,21.19-2.8,6.3,2.21,10,7.18,13.84,11.93,5.15,6.42,6.7,14.17,7.5,22.36a40.35,40.35,0,0,1-4,21.32c-1.81,3.9-5.08,7.36-8.35,10.3-8.52,7.64-18.43,8.37-28.24,2.27-5.08-3.16-10.63-6.13-14.57-10.45C593.61,637.66,591.8,629.64,592,621.32Zm15.54-2.55c.57,3.48.66,7.14,1.82,10.4,1.72,4.83,4.05,8.84,9.26,11.64,6.58.94,13.38.84,17.79-5.64,5.42-8,7.18-31-8.57-34.56C617.39,600.23,607,607,607.53,618.77Z"/><path class="cls-1" d="M664.57,657.84c-3.18-1.57.22-3.65.22-7.19s-3.17-5.08-.65-7.57,4.12-.48,7.33,1.1c4.51,2.24,7.92,1.43,7.92,6.47,0,4-4.5,1-7.57,3.59C668.44,657,668.15,659.61,664.57,657.84Z"/></svg>
