<svg id="Layer_1" data-name="Layer 1" xmlns="http://www.w3.org/2000/svg" viewBox="0 0 800 800"><defs><style>.cls-1{fill-rule:evenodd;}</style></defs><title>Do Lectures</title><path class="cls-1" d="M658.21,312.08c16.85.12,32.26-4.48,47.76-7.06,2.58-9.71-.4-18.2-.83-27-.21-4.18.41-8.82.41-13.29s-.8-9.2-.41-13.29a31.51,31.51,0,0,1,6.23-15.78c4.95-5.92,16.21-12.06,25.34-13.71a48.89,48.89,0,0,1,27.41,3.74c7.82,3.73,16.4,14.08,17.86,26.58,1.11,9.5,0,24.14-1.25,34.47-.38,3.21-.18,8-1.25,10.38-1.51,3.35-7.56,4-9.55,7.48-5.24,9.21-.32,19.86,5.4,25.33,2.58,2.47,6.38,2,8.3,4.15,2.16,2.39,3.76,10,4.15,14.54.83,9.46-.86,19.07-2.49,28.66-1.6,9.42-3.44,19.48-7.06,23.68-8,9.25-42.26,17.18-55.24,5-12.36-11.62-9.57-36.63-14.12-56.49-15,1.31-33.1-.43-46.1,2.91,3.59,35.12,1.73,73.33,2.49,109.65.65,31.22-13,67.22-31.15,81.41-8.89,7-21.42,12.15-34.06,15.78-26.74,7.69-60,5.73-88.47-.42-15.14-3.27-30.3-7.09-40.7-14.95-17.17-13-26.13-38.74-29.49-64.79-3.71-28.73-7.36-56-9.14-85.14a415.8,415.8,0,0,1,4.15-88.47c2-13.36,4.88-25.81,10-37,4.83-10.6,10.88-21.27,19.1-27.83,7.65-6.09,17.5-10,27.41-13.29,24.26-7.94,58.25-6.24,89.3-4.15,17.47,1.17,33.07,3.64,43.61,11.21C647.36,249.9,652.39,279.54,658.21,312.08Zm80.57-26.58a14.39,14.39,0,0,0,13.29-1.25c6.83-4.83,9.27-26.92,1.25-33.64-2.21-1.85-6.46-2.92-11.22-2.08C728.32,251,727,280.46,738.78,285.5Zm-244.22,64c-3.71,10.39-3.68,30.82-2.49,45.69,1.2,15.09,2.11,31.81,7.06,43.2,6,13.88,22,24.25,38.21,27.41,23.45,4.58,50.47-1.07,61.47-19.11,7.48-12.27,8.62-32.65,9.55-52.75s-2-41.43-8.72-53.16c-9.67-17-34-26.16-61.05-23.67C517.12,319,500.71,332.27,494.56,349.46Zm262.08,34.06c11.8-8.8,3.34-36.23-8.31-36.13C722.64,347.59,735.46,399.32,756.64,383.52Z"/><path class="cls-1" d="M144.44,474.48c-14-3.13-33.17-1.9-47.76-.42-5.9,16.47-1,37.16-3.32,54.82-.32,2.37-3.94,7.85-5.4,9.55a38,38,0,0,1-17.86,11.21c-17.17,4.84-36.12,0-44.86-12.87-4.73-7-10-19-11.22-29.49-1.2-10,.18-27.38,5.4-34.47,2.12-2.87,6.56-3.29,9.14-7.06,2-2.86,4.74-8.69,4.15-12.88-.91-6.51-10.26-6.67-14.12-11.21-4-13.11-5.89-22.92-3.74-37.38,1.65-11.09,3.46-22.37,8.3-30.32,9-14.72,38.4-26.22,56.9-14.12,2.8,1.83,5,4.79,7.48,7.89s6,5.19,7.06,9.55c4.27,17.16-2.49,39.55-1.25,57.73,16.08,3.06,37.29.44,52.33-1.25,7.54-33.77-3-66.69-1.66-101.76,1-25.71.26-53.17-3.32-77.25-1.08-7.24-5.13-17.52-2.07-22.43,2.46-4,13.17-4.6,19.94-5.4,23-2.74,48.27-1.66,71.44-3.74,15.4-1.38,33,.83,47.76,3.32,14.5,2.45,29.19,4.41,41.95,7.89,25.77,7,46.59,21.64,61.88,38.21,15.77,17.09,26.54,39.91,33.23,66.87,6.42,25.85,11.37,60.47,7.48,90.54A191.55,191.55,0,0,1,396.13,504c-12.53,20.33-30.4,39-52.33,47.76-24.78,9.87-57.6,8.49-91,8.3-22.93-.12-46.76-2.42-69.77-5-7.22-.8-16-1-21.6-3.32-11.36-4.7-15.78-23.41-16.61-39-.33-6.14,1.39-11.16,1.66-17.44C146.83,487.76,144.92,482,144.44,474.48Zm76.84-153.26c-5.23,5.69-5.4,25-5.4,34.06,0,27.69.79,50.38,4.15,74.76,1.57,11.39,3.22,24.81,10,29.91,4.14,3.13,12.4,4,19.94,5,20.92,2.66,53.17,3.88,68.11-4.15,12.94-6.95,19.94-29.15,22.84-45.69,3.38-19.17,3.59-44.8-3.32-59.81-14.22-30.84-48.64-43.31-95.12-39.87C235.3,315.93,225.55,316.56,221.27,321.22ZM42.68,410.1c1.24,11.07,14.71,19.65,22.84,9.14,5-6.41,6.51-23.49,0-30.32-2.12-2.23-6.14-3.47-10-3.32C45.25,386,41.35,398.19,42.68,410.1ZM53.06,520.58c6.09,2.37,13.39-.9,16.61-6.23,4.74-7.82,3.83-28.09-4.57-31.15-2.33-.85-4.69-.5-7.48,0C43.66,485.69,39.21,515.18,53.06,520.58Z"/></svg>
