<svg id="Layer_1" data-name="Layer 1" xmlns="http://www.w3.org/2000/svg" viewBox="0 0 236.58 236.58"><defs><style>.cls-1{fill:#c4161c;}</style></defs><title>Artboard 1</title><path class="cls-1" d="M215.42,114.63a97.13,97.13,0,1,0-103.24,96.93l5.9,21.67,6-21.64A97.25,97.25,0,0,0,215.42,114.63ZM118.29,27.88a86.67,86.67,0,0,1,69.53,34.94,258.94,258.94,0,0,0-69.7,126.38A258.86,258.86,0,0,0,48.62,63,86.67,86.67,0,0,1,118.29,27.88ZM31.54,114.63a86.18,86.18,0,0,1,11.28-42.7A248.46,248.46,0,0,1,109.9,201,86.87,86.87,0,0,1,31.54,114.63ZM126.35,201A248.54,248.54,0,0,1,193.64,71.72,86.68,86.68,0,0,1,126.35,201Z"/><path class="cls-1" d="M158.83,154a81.19,81.19,0,0,1,28.11-37.09A28.06,28.06,0,0,1,158.83,154Z"/><path class="cls-1" d="M48.54,130.67a27.91,27.91,0,0,1,1.11-13.77A81.14,81.14,0,0,1,77.76,154,28.1,28.1,0,0,1,48.54,130.67Z"/></svg>