<svg id="Layer_1" data-name="Layer 1" xmlns="http://www.w3.org/2000/svg" viewBox="0 0 612 612"><defs><style>.cls-1{isolation:isolate;}.cls-2{fill:#4e4e4e;}</style></defs><title>Artboard 1</title><g class="cls-1"><path class="cls-2" d="M102.43,296.78q0-11.5-6.74-17.34a24,24,0,0,0-31.34,0q-6.74,5.84-6.74,17.34v51.31a8.3,8.3,0,0,1-2.19,6.1,7.84,7.84,0,0,1-5.83,2.21,7.83,7.83,0,0,1-5.83-2.21,8.3,8.3,0,0,1-2.19-6.1v-121a8.31,8.31,0,0,1,2.19-6.1,7.83,7.83,0,0,1,5.83-2.21A7.84,7.84,0,0,1,55.42,221a8.31,8.31,0,0,1,2.19,6.1v45.11l.36.35a31.12,31.12,0,0,1,12.12-9.38,36.86,36.86,0,0,1,14.67-3A37.23,37.23,0,0,1,96.6,262.1a32.78,32.78,0,0,1,10.84,6.19,30,30,0,0,1,8,11.15,41,41,0,0,1,3,16.45v52.19a8.3,8.3,0,0,1-2.19,6.1,8.79,8.79,0,0,1-11.66,0,8.3,8.3,0,0,1-2.19-6.1Z"/><path class="cls-2" d="M138.24,290.23a47.5,47.5,0,0,1,8.38-15.48,40.64,40.64,0,0,1,62.87,0,47.61,47.61,0,0,1,8.38,15.48,59.06,59.06,0,0,1,0,36.09,47.56,47.56,0,0,1-8.38,15.48,40.64,40.64,0,0,1-62.87,0,47.45,47.45,0,0,1-8.38-15.48,59.06,59.06,0,0,1,0-36.09Zm14.67,30.43a37.79,37.79,0,0,0,4.65,11.15,23.93,23.93,0,0,0,8.29,8.14,26.28,26.28,0,0,0,24.42,0,24,24,0,0,0,8.29-8.14,37.93,37.93,0,0,0,4.65-11.15,53.33,53.33,0,0,0,0-24.77,38,38,0,0,0-4.65-11.15,24,24,0,0,0-8.29-8.14,26.29,26.29,0,0,0-24.42,0,24,24,0,0,0-8.29,8.14,37.86,37.86,0,0,0-4.65,11.15,53.35,53.35,0,0,0,0,24.77Z"/><path class="cls-2" d="M228.71,273.07a22.61,22.61,0,0,1-1.28-6,6.78,6.78,0,0,1,2-4.78,7.39,7.39,0,0,1,5.65-2.12,8.43,8.43,0,0,1,5.28,1.68q2.19,1.68,3.64,6.28l20.59,64.22H265l20.23-61.92q1.82-5.66,3.65-8t5.83-2.3q4,0,5.83,2.3t3.64,8l20.23,61.92h.36l20.59-64.22q1.46-4.6,3.74-6.28a8.52,8.52,0,0,1,5.19-1.68q3.83,0,5.74,2.12a7,7,0,0,1,1.91,4.78,22.74,22.74,0,0,1-1.28,6L334,348.26a15.65,15.65,0,0,1-3.74,6.28,9.11,9.11,0,0,1-11,0q-2.19-1.86-3.64-6.28l-20.77-63.52h-.36l-20.77,63.52q-1.46,4.42-3.64,6.28a8.15,8.15,0,0,1-5.47,1.86,8.07,8.07,0,0,1-5.56-1.86,15.61,15.61,0,0,1-3.74-6.28Z"/><path class="cls-2" d="M373.95,231.14a9.88,9.88,0,0,1,13.85,0,9.21,9.21,0,0,1,0,13.45,9.88,9.88,0,0,1-13.85,0,9.21,9.21,0,0,1,0-13.45Zm14.94,116.94a8.3,8.3,0,0,1-2.19,6.1,8.79,8.79,0,0,1-11.66,0,8.3,8.3,0,0,1-2.19-6.1V268.47a8.31,8.31,0,0,1,2.19-6.1,8.79,8.79,0,0,1,11.66,0,8.31,8.31,0,0,1,2.19,6.1Z"/><path class="cls-2" d="M420.23,314.29q0,12.39,7.74,20.52T448.84,343q9.11,0,14.76-2.48a57.06,57.06,0,0,0,11.3-6.72q4.74-3.54,6.74-3.54a5.43,5.43,0,0,1,4.1,1.86,7.11,7.11,0,0,1,1.73,5q0,2.83-3.37,6.19a38,38,0,0,1-9,6.37,59.37,59.37,0,0,1-12.57,4.87,53.27,53.27,0,0,1-13.85,1.86,46.93,46.93,0,0,1-19.77-3.89,38.15,38.15,0,0,1-13.94-10.62,44.81,44.81,0,0,1-8.11-15.39,62.14,62.14,0,0,1-2.64-18.22,56,56,0,0,1,3-18.31A47.19,47.19,0,0,1,416,274.49,40.77,40.77,0,0,1,429.8,264a41.75,41.75,0,0,1,17.95-3.8,39,39,0,0,1,17.4,3.8,39.51,39.51,0,0,1,13.21,10.44,47.41,47.41,0,0,1,8.29,14.86A51.19,51.19,0,0,1,489.48,306q0,4.25-1.91,6.28t-7,2Zm53.21-11.68a35.44,35.44,0,0,0-1.55-10.26,29.94,29.94,0,0,0-4.83-9.47,23.53,23.53,0,0,0-8.11-6.81,24.24,24.24,0,0,0-11.21-2.48,28.8,28.8,0,0,0-12.48,2.48,23.05,23.05,0,0,0-8.38,6.55,29.18,29.18,0,0,0-4.83,9.2,39.35,39.35,0,0,0-1.82,10.79Z"/><path class="cls-2" d="M505.33,275.46a25,25,0,0,1,7.56-8.49,34.75,34.75,0,0,1,10.66-5.13,43.25,43.25,0,0,1,12-1.68,50.89,50.89,0,0,1,10.66,1.24,53.52,53.52,0,0,1,10.66,3.45,25.49,25.49,0,0,1,7.93,5.31,9.42,9.42,0,0,1,3,6.63,6.05,6.05,0,0,1-1.91,4.51,7.4,7.4,0,0,1-5.38,1.86,7.26,7.26,0,0,1-3.37-.8,38.7,38.7,0,0,1-4.1-2.57,40.1,40.1,0,0,0-7.65-4.51,24.67,24.67,0,0,0-9.84-1.68,22.05,22.05,0,0,0-12.12,3.1,9.83,9.83,0,0,0-4.83,8.76q0,4.78,5.1,7.87a102.32,102.32,0,0,0,15.85,7.17q7.11,2.65,12,4.87a55.89,55.89,0,0,1,9.2,5.22,25.43,25.43,0,0,1,6.92,7.17,17.62,17.62,0,0,1,2.64,9.64q0,14-10.39,21.5t-25,7.52a60.44,60.44,0,0,1-14.12-1.59,49.39,49.39,0,0,1-11.66-4.25,27.58,27.58,0,0,1-7.84-5.84q-2.83-3.18-2.83-6.19a7.08,7.08,0,0,1,1.91-5,6.15,6.15,0,0,1,4.65-2q2.73,0,8.56,3.89a53.46,53.46,0,0,0,10,5.57,30.93,30.93,0,0,0,11.84,2q8.38,0,13.58-3.89t5.19-8.85q0-5.66-5.56-9.29t-16.86-8.23q-7.11-2.83-11.66-5a54.74,54.74,0,0,1-8.66-5,23.83,23.83,0,0,1-6.56-6.9,17,17,0,0,1-2.46-9.11A23.19,23.19,0,0,1,505.33,275.46Z"/></g><g class="cls-1"><path class="cls-2" d="M578.29,267.39a22,22,0,0,1-11.71-11.71,22,22,0,0,1,0-16.9,22,22,0,0,1,11.71-11.71,22,22,0,0,1,16.9,0,22,22,0,0,1,11.71,11.71,22,22,0,0,1,0,16.9,22,22,0,0,1-11.71,11.71,22,22,0,0,1-16.9,0Zm14.91-4.23a17,17,0,0,0,5.43-3.71,17.4,17.4,0,0,0,3.68-5.55,17.42,17.42,0,0,0,0-13.34,17.41,17.41,0,0,0-3.68-5.55,17.08,17.08,0,0,0-5.43-3.71,16.37,16.37,0,0,0-12.92,0,17.09,17.09,0,0,0-5.43,3.71,17.39,17.39,0,0,0-3.68,5.55,17.42,17.42,0,0,0,0,13.34,17.38,17.38,0,0,0,3.68,5.55,17.06,17.06,0,0,0,5.43,3.71,16.37,16.37,0,0,0,12.92,0Zm-11.47-13.83V258a2,2,0,0,1-4,0V236.3q0-1.27,1.39-1.27h8q4.71,0,6.91,1.63t2.2,5.55a6.58,6.58,0,0,1-1.69,5,7.73,7.73,0,0,1-4.53,2l5.37,8.21a3,3,0,0,1,.42.75,2.14,2.14,0,0,1,.18.75c0,.32-.23.57-.69.75a4.18,4.18,0,0,1-1.54.27,2.8,2.8,0,0,1-1.42-.3,3.22,3.22,0,0,1-1-1l-5.74-9.24Zm4.59-3.62a10.93,10.93,0,0,0,4.41-.69q1.51-.69,1.51-3.11a2.54,2.54,0,0,0-1.51-2.66,11.15,11.15,0,0,0-4-.6h-5v7.06Z"/></g></svg>