<svg id="Layer_1" data-name="Layer 1" xmlns="http://www.w3.org/2000/svg" viewBox="0 0 800 800"><defs><style>.cls-1{fill:#fff;}</style></defs><title>DigitasLBi</title><path class="cls-1" d="M516.16,519.24a18.78,18.78,0,0,0,1.47,4.79l0,.08c2.12,5.51,4.14,6.69,5.74,6.42a2.77,2.77,0,0,0,2.77-2.26,102.56,102.56,0,0,1-.21-13.12,20,20,0,0,1,1.23-5.3l.16-.33s-2.86,2.1-5.82,3.89C517.65,515.38,515.53,515.51,516.16,519.24Z"/><path class="cls-1" d="M548.73,437.42s4.11,24.29-.25,33.19,13.92-5.81,16.12-13.26S560.5,424.94,548.73,437.42Z"/><path class="cls-1" d="M597.08,335.8l5.81-13.67,5.73,14.29,11.58,6.11-11.58,5.16-6.34,11.87-5.47-12.18-11.25-6.68ZM457.62,268.21l9.16-21.64,9.15,22.59,18.24,9.62L475.93,287,465.8,305.72l-8.61-19.26-17.82-10.59ZM336.13,117.5,341,106l4.86,12,9.71,5.11-9.71,4.35-5.36,10-4.6-10.22-9.46-5.6ZM154.57,383.11,148.65,370l-12.14-7.2L149,357.51l6.25-14.76,6.23,15.43,12.47,6.57-12.47,5.55ZM362.28,564,354,579.5l-7.14-15.9-14.64-8.67,15.06-6.36,7.48-17.78,7.55,18.56,15,7.94ZM665,660.13s-2.63-16-14.24-8.35c-12,7.94-16.6,26.23-44.87,11-.95-.11-3.23,0-8.58,2-30.74,5.76-43.51-31-43.51-31s-3.12,1.17-10.35-7.45-4.78-28.86,1.95-39.93l6.27-14.87s-36.58,32.7-37.07,34.62,0,9.13-3.34,9.62-5.79,1.46-6.27,4.78,5.76,1.95,9.14,3.4,3.35,17.78-3.39,26.91c-5.76-3.83-24-7.23-22.1-13.48s-2.42-24,1-31.69,12.48-9.18,12.48-9.18l28.37-30.74s-4.81-3.35-11.55-11.06c-26.44,0-45.16-28.38-44.71-23.59s2.9,28.89,2.9,28.89-1,4.3,3.83,10.08,8.7,13.42,7.25,18.29-14.43,13.91-20.71,15.85-34.56,24-34.56,24,.9,1.91-2,8.69-15.41,4.3-15.41,4.3a20.51,20.51,0,0,0-4.29.49c-1.91.47,3.37,10.06-.48,14.92s-27.88,7.2-29.33,2.85,3.85-14.41,5.29-18.7S395,635,395,635s8.65-1,11.52-8.18,10.11-8.61,13-11.52,37-32.18,38.48-35.09,1.91-11.09-4.34-18.23-12.47-7.71-15.85-14-2.18-11.57-6-14.89-15.6-14-19.45-18.8-3.39-19.21-3.39-25.95c-70.17,18.75-102.42-6.77-104.33.47s-1.91,10.6-1.91,10.6S284.89,526.85,283,531.14s-6.27,25-6.27,25L271.89,561s1,4.78-1.91,7.67-22.61,39.9-24,46.12-3.83,15.38-8.65,17.8A25.56,25.56,0,0,1,227.16,635s3.39,8.65-.49,14c-15.36,7.23-31.23-.46-29.3-6.72s8.18-14.43,13-16.84,7.72-5.76,9.13-10.09,6.74-3.83,12.52-8.64,7.2-10.13,10.11-16.83,4.78-10.13,5.76-21.14,4.32-12.52,5.3-16.84-.51-12.52,5.76-15.84c1.44-20.24,9.6-44.73,9.6-44.73s-10.08-8.64-16.34-12c-24.52,4.83-43.75-15.9-46.17-16.34s-19.22-.95-16.33,5.76,0,21.14,2.9,32.69,11.5,14.9,12.48,17.82-1.91,6.71-1.91,6.71l2.42,2.39s.95-1.93,5.3-1c6.68,5.84,10.54,12,7.64,26-17.31,4.79-24-10.55-26.44-15.39s-4.3-4.32-4.78-7.2-6.74.43-9.64-2.44-1.44-16.33-1.44-25-2.42-25.93-3.39-31.72-5.28-7.67-3.81-17.29,5.27-4.81,8.64-12,12.48-7.71,20.68-6.25,41.34,4.81,41.34,4.81-3.86-30.28-1-47.15,15.36-14.9,15.87-19.21,4.32-42.32,5.77-49,5.29-26.44,11-36,9.1-28.38,9.1-28.38,3.88-7.67-5.27,1.93-34.37,9.37-37.75,11-6.71,4.56-7.93,7.45-7.2,3.13-10.81,3.37-3.64-2.63-5.29-2.63-1.93,3.59-10.13-2.39-3.85-12.53-4.79-16.12.95-4.57,3.35-8.19,5.77-5,9.38-8.18,2.86-1.93,6.76-6,3.59-5,6.69-8.16,3.62-3.13,5.79-5.28c1.47-1.47,2.41-1.23,2.22-1.74-.82-1-7.45-8.56-17-.52-10.17,8.58-13,3.32-13,3.32,3.37-.33,5.47-4.26,9.1-9.62,2.78-4.1,9.32-5.87,12.21-6.49l-.27-.85a6.71,6.71,0,0,1-6-4.19l-1-.63-.4.09a6.82,6.82,0,0,1-6.3-4.24c-.57-.38-1.12-.71-1.71-1.09l-.32,0a6.21,6.21,0,0,1-5.7-3.8l-1-.63-.52.09a6.12,6.12,0,0,1-5.73-4.05c-.66-.4-1.36-.84-2.06-1.27l-.27,0a5.84,5.84,0,0,1-5.38-3.64c-.41-.27-.87-.54-1.28-.81l-.54.09a5.78,5.78,0,0,1-5.44-3.89l-2.28-1.46-.4.08a5.45,5.45,0,0,1-5-3.56c-.68-.44-1.41-.89-2.12-1.38l-.54.13a4.88,4.88,0,0,1-4.62-3.42c-.54-.35-1-.71-1.55-1l-.57.11a4.94,4.94,0,0,1-4.64-3.51c-.46-.28-.9-.59-1.38-.89l-.28,0a4.34,4.34,0,0,1-4.11-2.94l-1.49-.95-.39.06a4.09,4.09,0,0,1-3.92-3l-.87-.57-1,.21a4.11,4.11,0,0,1-4-3.66l-1.15-.81-.66.13a3.51,3.51,0,0,1-3.45-3.07c-2.88-2.07-4.79-3.58-5.36-4.43-5.16-7.4,7.21-2.17,7.21-2.17l5.06,2.8,1.09-.22a3.51,3.51,0,0,1,3.39,2.72l1.22.67a3.52,3.52,0,0,1,1.3-.27,4.11,4.11,0,0,1,4,3.2l.73.39,1.11-.22a4.08,4.08,0,0,1,3.88,3l1,.57,1-.19a4.31,4.31,0,0,1,4.11,3.07l.82.44a5.69,5.69,0,0,1,1.39-.27,4.8,4.8,0,0,1,4.64,3.64l1.47.81.62-.11a4.89,4.89,0,0,1,4.48,2.94l2.06,1.11,1.17-.24a5.34,5.34,0,0,1,5,3.7l1.82,1a5.59,5.59,0,0,1,1.23-.22,5.78,5.78,0,0,1,5.46,3.92l1,.55.78-.17a5.84,5.84,0,0,1,5.38,3.58l2,1.11.65-.11a6.17,6.17,0,0,1,5.6,3.59l1.39.79.24-.08a6.14,6.14,0,0,1,5.22,3.09l2.17,1.2.92-.17a6.84,6.84,0,0,1,6.27,4.14l1.22.7.21,0a10.24,10.24,0,0,1,2.74.46c-.28-1.44-6.6-12.1,4.34-17.26,11.74-5.49,22,13.2,28.4,7.37,10.47-9.45-3.46-17.2-3.46-17.2s10.44-1.69,14.43,7.07c4.9,10.74-1.52,14.37-1.52,14.37s6.68,0,9.22-9.87-7.88-15.9-12.85-18.05c0,0,18.88-2.5,26.83,11.53,3.81,6.79,5.09,12.07,5.43,15.85a66.08,66.08,0,0,1,9.4.16,33.28,33.28,0,0,1,7,1.74c4.38,1.41,9.11,3,12.83,5.71a70.28,70.28,0,0,1,13.05,13.13c2.78,3.48,5.73,7.42,9.29,10.11.65.49,1.39.93,2.06,1.38,2.63,1.52,7.67,4.05,11.77,4.16,5.87.16,15.3,4.21,16,19.75S395.9,265.2,395.9,265.2s-14.38,10.28-23.13-15.35c0,0-3.18,2.75.89,10.38s1.08,13.46,2.66,15.54,6.82,5.47,6.38,13.13c-.44,8.16,8.88,6.52,8.88,6.52s-10.25,10-20.32-7.34c0,.78.51,2.2,1.5,7.06,5.55,11.77.25,22.58.73,32.18s-4.3,24.76-.47,26.68,12.77,10.33,18.76,15.65,27.42,11,35.31,12,23.84-3.62,56.74-.71,57.69,43.73,57.69,43.73-.21.7,4.08-1,29.6-9.38,38.49-6c8.64.27,31.94,9.13,45.44,20.21,13.2,8.89,23.57,28.1,30.76,58.15,8.16,26.94-9.13,57.72-26.47,75-10.3,10.32-14,20.47-15.06,28.23a13.54,13.54,0,0,0,3.88,11c10.46,10.11,27.53,8.4,32.83-3.91,0,0,.6,8.23-2.88,11.82,0,0,10.52-2.28,17.31-13.83,0,0-2.8,21.77-22.91,28.8a45.35,45.35,0,0,1-28.32,0s-1.87,13.57,11.52,9.6c13.61-4,27.81-9.41,36.75.17C675.68,652.44,665,660.13,665,660.13ZM225.28,226.82l.19.38-.08-.11Z"/></svg>
