<?xml version="1.0" encoding="utf-8"?>
<!-- Generator: Adobe Illustrator 20.0.0, SVG Export Plug-In . SVG Version: 6.00 Build 0)  -->
<svg version="1.1" id="Layer_1" xmlns="http://www.w3.org/2000/svg" xmlns:xlink="http://www.w3.org/1999/xlink" x="0px" y="0px"
	 viewBox="0 0 800 800" style="enable-background:new 0 0 800 800;" xml:space="preserve">
<title>Do Lectures</title>
<path d="M642.8,316.9c15.8,0.1,30.3-4.2,44.9-6.6c2.4-9.1-0.4-17.1-0.8-25.4c-0.2-3.9,0.4-8.3,0.4-12.5s-0.8-8.7-0.4-12.5
	c0.6-5.4,2.6-10.5,5.9-14.8c4.7-5.6,15.2-11.3,23.8-12.9c8.7-1.3,17.7-0.1,25.8,3.5c7.4,3.5,15.4,13.2,16.8,25
	c1,8.9,0,22.7-1.2,32.4c-0.4,3-0.2,7.5-1.2,9.8c-1.4,3.1-7.1,3.8-9,7c-4.9,8.7-0.3,18.7,5.1,23.8c2.4,2.3,6,1.9,7.8,3.9
	c2,2.2,3.5,9.4,3.9,13.7c0.8,8.9-0.8,17.9-2.3,26.9c-1.5,8.9-3.2,18.3-6.6,22.3c-7.5,8.7-39.7,16.2-51.9,4.7
	c-11.6-10.9-9-34.4-13.3-53.1c-14.1,1.2-31.1-0.4-43.3,2.7c3.4,33,1.6,68.9,2.3,103.1c0.6,29.4-12.2,63.2-29.3,76.5
	c-8.4,6.6-20.1,11.4-32,14.8c-25.1,7.2-56.4,5.4-83.2-0.4c-14.2-3.1-28.5-6.7-38.3-14.1c-16.1-12.2-24.6-36.4-27.7-60.9
	c-3.5-27-6.9-52.7-8.6-80.1c-1.7-27.8-0.4-55.7,3.9-83.2c1.9-12.6,4.6-24.3,9.4-34.8c4.5-10,10.2-20,18-26.2
	c7.2-5.7,16.5-9.4,25.8-12.5c22.8-7.5,54.8-5.9,84-3.9c16.4,1.1,31.1,3.4,41,10.5C632.6,258.4,637.4,286.3,642.8,316.9z
	 M718.6,291.9c4.1,1.7,8.8,1.2,12.5-1.2c6.4-4.5,8.7-25.3,1.2-31.6c-2.1-1.7-6.1-2.7-10.5-2C708.7,259.5,707.5,287.2,718.6,291.9z
	 M489,352.1c-3.5,9.8-3.5,29-2.3,43c1.1,14.2,2,29.9,6.6,40.6c5.6,13.1,20.7,22.8,35.9,25.8c22,4.3,47.5-1,57.8-18
	c7-11.5,8.1-30.7,9-49.6c0.9-18.9-1.9-39-8.2-50c-9.1-16-32-24.6-57.4-22.3C510.2,323.4,494.7,335.9,489,352.1L489,352.1z
	 M735.4,384.1c11.1-8.3,3.1-34.1-7.8-34C703.4,350.3,715.5,398.9,735.4,384.1L735.4,384.1z"/>
<path d="M159.8,469.6c-13.2-2.9-31.2-1.8-44.9-0.4c-5.5,15.5-0.9,34.9-3.1,51.5c-0.3,2.2-3.7,7.4-5.1,9c-4.5,5-10.3,8.7-16.8,10.5
	c-16.1,4.6-34,0-42.2-12.1c-4.4-6.6-9.4-17.9-10.5-27.7c-1.1-9.4,0.2-25.7,5.1-32.4c2-2.7,6.2-3.1,8.6-6.6c1.9-2.7,4.5-8.2,3.9-12.1
	c-0.9-6.1-9.6-6.3-13.3-10.5c-3.8-12.3-5.5-21.6-3.5-35.1c1.6-10.4,3.3-21,7.8-28.5c8.5-13.8,36.1-24.7,53.5-13.3
	c2.6,1.7,4.7,4.5,7,7.4c2.3,2.9,5.6,4.9,6.6,9c4,16.1-2.3,37.2-1.2,54.3c15.1,2.9,35.1,0.4,49.2-1.2c7.1-31.8-2.8-62.7-1.6-95.7
	c0.9-24.2,0.2-50-3.1-72.6c-1-6.8-4.8-16.5-1.9-21.1c2.3-3.8,12.4-4.3,18.7-5.1c21.6-2.6,45.4-1.6,67.2-3.5
	c14.5-1.3,31,0.8,44.9,3.1c13.6,2.3,27.4,4.1,39.4,7.4c24.2,6.6,43.8,20.3,58.2,35.9c14.8,16.1,25,37.5,31.2,62.9
	c6,24.3,10.7,56.9,7,85.1c-3.3,24.6-11.7,48.3-24.6,69.6c-11.8,19.1-28.6,36.7-49.2,44.9c-23.3,9.3-54.2,8-85.6,7.8
	c-21.6-0.1-44-2.3-65.6-4.7c-6.8-0.8-15-0.9-20.3-3.1c-10.7-4.4-14.8-22-15.6-36.7c-0.3-5.8,1.3-10.5,1.6-16.4
	C162,482.1,160.2,476.7,159.8,469.6z M232,325.5c-4.9,5.3-5.1,23.5-5.1,32c0,26,0.7,47.4,3.9,70.3c1.5,10.7,3,23.3,9.4,28.1
	c3.9,2.9,11.7,3.8,18.7,4.7c19.7,2.5,50,3.6,64-3.9c12.2-6.5,18.7-27.4,21.5-43c3.2-18,3.4-42.1-3.1-56.2
	c-13.4-29-45.7-40.7-89.4-37.5C245.2,320.5,236,321.1,232,325.5L232,325.5z M64.1,409.1c1.2,10.4,13.8,18.5,21.5,8.6
	c4.7-6,6.1-22.1,0-28.5c-2-2.1-5.8-3.3-9.4-3.1C66.5,386.4,62.8,397.9,64.1,409.1z M73.8,512.9c5.7,2.2,12.6-0.8,15.6-5.9
	c4.5-7.4,3.6-26.4-4.3-29.3c-2.2-0.8-4.4-0.5-7,0C65,480.1,60.8,507.9,73.8,512.9z"/>
</svg>
